<?xml version="1.0" encoding="utf-8"?>
<!-- Generator: Adobe Illustrator 24.3.0, SVG Export Plug-In . SVG Version: 6.00 Build 0)  -->
<svg version="1.0" id="katman_1" xmlns="http://www.w3.org/2000/svg" xmlns:xlink="http://www.w3.org/1999/xlink" 
	width="86.022" height="62.911" viewBox="0 0 86.022 62.911">
	 <!-- viewBox="0 0 860.22 629.11" style="enable-background:new 0 0 860.22 629.11;" xml:space="preserve"> -->
	 <!-- \width="111.84" height="80.96 -->
<style type="text/css">
	.st0{clip-path:url(#SVGID_2_);fill:#4285F4;}
	.st1{clip-path:url(#SVGID_2_);fill:#34A853;}
	.st2{clip-path:url(#SVGID_2_);fill:#FBBC04;}
	.st3{clip-path:url(#SVGID_2_);fill:#EA4335;}
	.st4{clip-path:url(#SVGID_2_);fill:#C5221F;}
	.st5{clip-path:url(#SVGID_2_);fill-rule:evenodd;clip-rule:evenodd;fill:#787879;}
	.st6{clip-path:url(#SVGID_2_);fill-rule:evenodd;clip-rule:evenodd;fill:#79797A;}
	.st7{clip-path:url(#SVGID_2_);fill-rule:evenodd;clip-rule:evenodd;fill:#7A7A7B;}
</style>
<g>
	<!-- <defs>
		<rect id="SVGID_1_" x="55.11" y="-60.44" width="750" height="750"/>
	</defs>
	<clipPath id="SVGID_2_">
		<use xlink:href="#SVGID_1_"  style="overflow:visible;"/>
	</clipPath> -->
	<path class="st0" d="M70.72,400.44h36.43v-88.46l-52.04-39.03v111.88C55.11,393.45,62.1,400.44,70.72,400.44"/>
	<path class="st1" d="M232.04,400.44h36.43c8.62,0,15.61-6.99,15.61-15.61V272.95l-52.04,39.03V400.44z"/>
	<path class="st2" d="M232.04,244.33v67.65l52.04-39.03v-20.81c0-19.29-22.02-30.31-37.47-18.73L232.04,244.33z"/>
	<polygon class="st3" points="107.15,311.97 107.15,244.33 169.6,291.16 232.04,244.33 232.04,311.97 169.6,358.81 	"/>
	<path class="st4" d="M55.11,252.13v20.81l52.04,39.03v-67.65L92.58,233.4C77.14,221.82,55.11,232.84,55.11,252.13"/>
	<path class="st5" d="M805.11,378.59c-4.43,0-8.86-0.09-13.28,0.06c-1.86,0.06-2.19-0.6-2.19-2.29c0.05-28.43,0.03-56.86,0.03-85.29
		c0-10.2,0.04-20.4-0.03-30.61c-0.01-1.69,0.33-2.35,2.19-2.29c4.42,0.15,8.85,0.06,13.28,0.06V378.59z"/>
	<path class="st5" d="M478.1,314.18c9.01,0,18.03,0.01,27.04-0.01c1.21,0,2.18,0,2.35,1.6c1.69,15.94-0.71,30.93-10.97,43.78
		c-10.26,12.85-23.77,19.84-40.18,21.38c-12.45,1.16-24.53-0.1-35.67-6c-19.29-10.22-31.24-25.93-33.91-47.92
		c-2.34-19.3,2.18-36.7,15.61-51.24c14.42-15.61,32.39-21.9,53.39-19.85c13.44,1.31,25.52,5.9,35.4,15.44
		c2.15,2.08,2.13,2.11,0.03,4.21c-2.65,2.66-5.34,5.28-7.95,7.98c-0.82,0.84-1.26,0.82-2.12-0.03
		c-13.33-13.26-29.47-16.16-46.78-10.94c-17.3,5.21-27.86,17.57-31.29,35.35c-2.82,14.59-0.72,28.51,8.65,40.56
		c10.99,14.14,25.79,19.44,43.36,17.67c9.3-0.94,17.6-4.27,24.6-10.55c7.44-6.68,11.21-15.22,12.65-24.97
		c0.29-1.93-0.61-2.03-2.12-2.02c-13.07,0.04-26.14-0.01-39.21,0.06c-1.71,0.01-2.39-0.36-2.3-2.21c0.15-3.37,0.12-6.76,0.01-10.14
		c-0.05-1.65,0.42-2.19,2.14-2.17C459.92,314.23,469.01,314.18,478.1,314.18"/>
	<path class="st6" d="M539.53,307.46c6.62-8.95,15.38-14.1,26.56-13.89c11.2,0.21,19.9,5.09,25.1,15.6
		c2.15-2.95,4.32-5.69,6.99-8.02c9.54-8.32,25.63-10.23,36.77-4.17c8.26,4.48,12.09,11.98,13.71,20.87
		c0.59,3.26,0.77,6.57,0.78,9.87c0.05,16.22,0,32.45,0.06,48.67c0.01,1.75-0.42,2.34-2.23,2.27c-3.6-0.14-7.21-0.15-10.81,0
		c-1.98,0.08-2.66-0.38-2.64-2.54c0.1-15.25,0.05-30.5,0.06-45.74c0-3.54-0.14-7.05-0.95-10.51c-1.78-7.56-6.47-11.54-14.25-12.04
		c-12.14-0.77-21.59,7.07-23.64,19.57c-0.38,2.31-0.48,4.62-0.48,6.95c0.01,14.05-0.02,28.09,0.04,42.14
		c0.01,1.62-0.31,2.24-2.08,2.17c-3.83-0.14-7.66-0.15-11.49,0c-1.79,0.07-2.08-0.61-2.07-2.19c0.05-15.25,0.04-30.5,0.03-45.74
		c0-3.75-0.08-7.5-1.02-11.18c-1.87-7.34-6.47-11.21-14.05-11.71c-12.58-0.83-22.35,7.59-23.91,20.56c-0.28,2.32-0.4,4.63-0.39,6.96
		c0.02,13.45,0.02,26.89,0,40.34c-0.01,3.39,0.48,2.89-3.03,2.92c-3.46,0.03-6.91-0.06-10.36,0.04c-1.52,0.05-2.06-0.31-2.05-1.95
		c0.05-26.21,0.05-52.43,0.01-78.65c0-1.49,0.44-1.94,1.91-1.9c3.68,0.09,7.36,0.09,11.04,0c1.45-0.04,2.02,0.34,1.95,1.87
		c-0.11,2.4-0.06,4.81-0.01,7.21C539.08,305.92,538.78,306.7,539.53,307.46"/>
	<path class="st6" d="M720.32,367.32c-1.1,0.15-1.34,0.76-1.68,1.22c-7.49,10.14-17.54,14.03-29.94,12.4
		c-9.45-1.24-17.16-5.46-22.44-13.41c-9.2-13.87-3.6-32.21,12.05-38.69c13.27-5.49,26.78-5.11,40.07,0.4
		c1.49,0.62,1.91,0.76,1.99-1.16c0.51-12.74-10.54-20.21-19.79-20.71c-8.72-0.47-15.88,2.56-21.19,9.58
		c-0.85,1.12-1.42,1.1-2.51,0.38c-3.45-2.26-6.91-4.52-10.49-6.57c-1.67-0.96-1.34-1.67-0.39-2.86c5.2-6.61,11.85-11.05,20.02-12.97
		c10.24-2.4,20.46-2.23,30.23,2.02c11.25,4.9,17.4,13.77,18.51,25.89c0.99,10.85,0.25,21.76,0.38,32.65
		c0.08,6.98-0.03,13.97,0.05,20.95c0.02,1.6-0.28,2.27-2.07,2.2c-3.67-0.15-7.36-0.1-11.04-0.02c-1.37,0.03-1.84-0.34-1.79-1.76
		C720.39,373.75,720.32,370.62,720.32,367.32 M701.18,337.57c-6.81-0.01-12.68,1.22-17.66,5.22c-4.49,3.6-6.58,8.24-5,13.92
		c1.59,5.71,6.02,8.68,11.42,10.11c13.2,3.49,28.05-6.65,30.11-20.2c0.4-2.61-0.26-3.95-2.52-5.17
		C712.21,338.57,706.5,337.76,701.18,337.57"/>
	<path class="st7" d="M769.46,337.39c0,12.84-0.08,25.68,0.07,38.52c0.03,2.4-0.71,2.86-2.88,2.76c-3.67-0.17-7.36-0.11-11.03-0.02
		c-1.42,0.03-1.76-0.47-1.76-1.81c0.03-26.28,0.03-52.56-0.01-78.84c0-1.53,0.53-1.89,1.96-1.86c3.9,0.09,7.81,0.11,11.71-0.01
		c1.64-0.05,1.98,0.54,1.97,2.06C769.44,311.26,769.46,324.32,769.46,337.39"/>
	<path class="st6" d="M761.78,256.58c6.27,0.03,11.3,5.05,11.31,11.3c0.02,6.37-4.98,11.35-11.45,11.4
		c-6.16,0.05-11.3-5.08-11.35-11.31C750.25,261.68,755.41,256.55,761.78,256.58"/>
</g>
</svg>
